<svg xmlns="http://www.w3.org/2000/svg"  viewBox="0 0 48 48" width="50px" height="50px"><path d="M 38.707031 3.0019531 C 38.706031 3.0019531 9.1269531 4.8476562 9.1269531 4.8476562 C 8.0138486 4.917433 7.1060112 5.9095393 7.1464844 7.0292969 A 1.50015 1.50015 0 0 0 7.1464844 7.0332031 L 8.4472656 41.701172 C 8.4889086 42.797769 9.3674173 43.683734 10.462891 43.732422 L 38.675781 44.998047 A 1.50015 1.50015 0 0 0 38.742188 44.998047 C 39.890837 44.998047 40.855469 44.043124 40.855469 42.888672 L 40.853516 5.0703125 A 1.50015 1.50015 0 0 0 40.851562 4.9765625 C 40.783231 3.8818096 39.760552 3.0019531 38.707031 3.0019531 z M 37.853516 6.0546875 L 37.855469 41.957031 L 11.414062 40.771484 L 10.177734 7.7871094 C 11.352441 7.7135308 23.107947 6.978237 30.779297 6.4980469 L 30.580078 11.273438 C 30.572078 11.464438 30.721109 11.626766 30.912109 11.634766 C 30.992109 11.637766 31.070766 11.612453 31.134766 11.564453 L 33.166016 10.023438 L 34.882812 11.376953 C 35.032812 11.495953 35.251141 11.468359 35.369141 11.318359 C 35.420141 11.254359 35.445359 11.173797 35.443359 11.091797 L 35.275391 6.2167969 C 35.782474 6.1850556 37.708052 6.0637936 37.853516 6.0546875 z M 24.558594 12.033203 C 19.489594 12.033203 16.650391 14.788016 16.650391 18.916016 C 16.650391 23.055016 19.861844 24.856672 22.589844 26.388672 C 24.605844 27.519672 26.355469 28.504875 26.355469 30.171875 C 26.355469 31.271875 25.817859 31.925781 24.630859 31.925781 C 23.084859 31.925781 22.472875 31.135172 22.546875 28.451172 C 22.546875 27.870172 16.650703 27.688172 16.470703 28.451172 C 16.013703 34.956172 20.067078 36.832031 24.705078 36.832031 C 29.198078 36.832031 32.722656 34.439562 32.722656 30.101562 C 32.722656 25.577562 29.327391 23.777969 26.525391 22.292969 C 24.552391 21.246969 22.871094 20.355344 22.871094 18.777344 C 22.871094 17.228344 24.021125 17.023438 24.703125 17.023438 C 25.423125 17.023438 26.717375 17.150016 26.609375 20.041016 C 26.609375 20.799016 31.712484 20.437297 32.396484 19.904297 C 32.396484 14.745297 29.627594 12.033203 24.558594 12.033203 z"/></svg>